<svg width="0" height="0" class="hidden">
  <symbol xmlns="http://www.w3.org/2000/svg" viewBox="0 0 16 16" id="icon-discord">
    <path d="M 5.6835938 1.9609375 L 5.4140625 2.0078125 C 5.3400625 2.0208125 3.5779687 2.3369375 2.1679688 3.4609375 C 1.3509687 4.2069375 0 8.273 0 11.5 L 0 11.634766 L 0.06640625 11.75 C 1.0924063 13.533 3.8754531 13.979 4.5644531 14 L 4.8476562 14.009766 L 5.90625 12.359375 L 5.8417969 12.318359 C 6.4377969 12.421359 7.147 12.5 8 12.5 C 8.827 12.5 9.5185156 12.427125 10.103516 12.328125 L 11.146484 14.007812 L 11.435547 14 C 12.124547 13.979 14.907594 13.533 15.933594 11.75 L 16 11.634766 L 16 11.5 C 16 8.273 14.649594 4.2064531 13.808594 3.4394531 C 12.423594 2.3384531 10.661891 2.0208125 10.587891 2.0078125 L 10.318359 1.9609375 L 10.132812 2.1601562 C 10.081812 2.2141562 9.6878906 2.6600938 9.4628906 3.1210938 C 8.7968906 3.0160938 8.255 3 8 3 C 7.746 3 7.2050156 3.0190469 6.5410156 3.1230469 C 6.3150156 2.6620469 5.9181875 2.2141562 5.8671875 2.1601562 L 5.6835938 1.9609375 z M 5.3144531 3.0546875 C 5.3924531 3.1526875 5.4720156 3.2620937 5.5410156 3.3710938 C 5.7200156 3.7020937 5.8616563 3.9708594 5.9726562 4.2558594 C 6.9356562 4.0188594 7.771 4 8 4 C 8.232 4 9.0931719 4.0195781 10.076172 4.2675781 L 10.488281 3.3398438 C 10.485281 3.3388438 10.483469 3.3388906 10.480469 3.3378906 C 10.544469 3.2408906 10.614594 3.1426875 10.683594 3.0546875 C 11.187594 3.1796875 12.29025 3.5112188 13.15625 4.1992188 C 13.59525 4.6002187 14.959047 8.110375 14.998047 11.359375 C 14.302047 12.400375 12.541594 12.869562 11.683594 12.976562 L 11.142578 12.105469 C 11.849578 11.905469 12.217094 11.702547 12.246094 11.685547 L 11.755859 10.8125 C 11.742859 10.8195 10.484 11.5 8 11.5 C 5.516 11.5 4.2571406 10.8195 4.2441406 10.8125 L 3.7539062 11.685547 C 3.7829062 11.702547 4.1599062 11.907375 4.8789062 12.109375 L 4.3203125 12.976562 C 3.4653125 12.870563 1.6989531 12.402375 1.0019531 11.359375 C 1.0409531 8.111375 2.4024062 4.6016562 2.8164062 4.2226562 C 3.7024063 3.5176562 4.8094531 3.1796875 5.3144531 3.0546875 z M 5.25 6 C 4.285 6 3.5 6.897 3.5 8 C 3.5 9.103 4.285 10 5.25 10 C 6.215 10 7 9.103 7 8 C 7 6.897 6.215 6 5.25 6 z M 10.75 6 C 9.785 6 9 6.897 9 8 C 9 9.103 9.785 10 10.75 10 C 11.715 10 12.5 9.103 12.5 8 C 12.5 6.897 11.715 6 10.75 6 z M 5.25 7 C 5.656 7 6 7.458 6 8 C 6 8.542 5.656 9 5.25 9 C 4.844 9 4.5 8.542 4.5 8 C 4.5 7.458 4.844 7 5.25 7 z M 10.75 7 C 11.156 7 11.5 7.458 11.5 8 C 11.5 8.542 11.156 9 10.75 9 C 10.344 9 10 8.542 10 8 C 10 7.458 10.344 7 10.75 7 z"></path>
  </symbol>
  <symbol xmlns="http://www.w3.org/2000/svg" viewBox="0 0 24 24" id="icon-email">
    <path d="M12 .02c-6.627 0-12 5.373-12 12s5.373 12 12 12 12-5.373 12-12-5.373-12-12-12zm6.99 6.98l-6.99 5.666-6.991-5.666h13.981zm.01 10h-14v-8.505l7 5.673 7-5.672v8.504z"></path>
  </symbol>
  <symbol xmlns="http://www.w3.org/2000/svg" viewBox="0 0 48 48" id="icon-telegram">
    <path fill-rule="evenodd" clip-rule="evenodd" d="M0 24C0 37.2548 10.7452 48 24 48C37.2548 48 48 37.2548 48 24C48 10.7452 37.2548 0 24 0C10.7452 0 0 10.7452 0 24ZM19.6 35L20.0083 28.8823L20.008 28.882L31.1369 18.839C31.6253 18.4055 31.0303 18.1941 30.3819 18.5873L16.6473 27.2523L10.7147 25.4007C9.4335 25.0084 9.4243 24.128 11.0023 23.4951L34.1203 14.5809C35.1762 14.1015 36.1953 14.8345 35.7922 16.4505L31.8552 35.0031C31.5803 36.3215 30.7837 36.6368 29.68 36.0278L23.6827 31.5969L20.8 34.4C20.7909 34.4088 20.7819 34.4176 20.7729 34.4264C20.4505 34.7403 20.1837 35 19.6 35Z"></path>
  </symbol>
  <symbol version="1.1" xmlns="http://www.w3.org/2000/svg" xmlns:xlink="http://www.w3.org/1999/xlink" preserveAspectRatio="xMidYMid" viewBox="0 0 256 250" id="icon-github">
    <g>
      <path d="M128.00106,0 C57.3172926,0 0,57.3066942 0,128.00106 C0,184.555281 36.6761997,232.535542 87.534937,249.460899 C93.9320223,250.645779 96.280588,246.684165 96.280588,243.303333 C96.280588,240.251045 96.1618878,230.167899 96.106777,219.472176 C60.4967585,227.215235 52.9826207,204.369712 52.9826207,204.369712 C47.1599584,189.574598 38.770408,185.640538 38.770408,185.640538 C27.1568785,177.696113 39.6458206,177.859325 39.6458206,177.859325 C52.4993419,178.762293 59.267365,191.04987 59.267365,191.04987 C70.6837675,210.618423 89.2115753,204.961093 96.5158685,201.690482 C97.6647155,193.417512 100.981959,187.77078 104.642583,184.574357 C76.211799,181.33766 46.324819,170.362144 46.324819,121.315702 C46.324819,107.340889 51.3250588,95.9223682 59.5132437,86.9583937 C58.1842268,83.7344152 53.8029229,70.715562 60.7532354,53.0843636 C60.7532354,53.0843636 71.5019501,49.6441813 95.9626412,66.2049595 C106.172967,63.368876 117.123047,61.9465949 128.00106,61.8978432 C138.879073,61.9465949 149.837632,63.368876 160.067033,66.2049595 C184.49805,49.6441813 195.231926,53.0843636 195.231926,53.0843636 C202.199197,70.715562 197.815773,83.7344152 196.486756,86.9583937 C204.694018,95.9223682 209.660343,107.340889 209.660343,121.315702 C209.660343,170.478725 179.716133,181.303747 151.213281,184.472614 C155.80443,188.444828 159.895342,196.234518 159.895342,208.176593 C159.895342,225.303317 159.746968,239.087361 159.746968,243.303333 C159.746968,246.709601 162.05102,250.70089 168.53925,249.443941 C219.370432,232.499507 256,184.536204 256,128.00106 C256,57.3066942 198.691187,0 128.00106,0 Z M47.9405593,182.340212 C47.6586465,182.976105 46.6581745,183.166873 45.7467277,182.730227 C44.8183235,182.312656 44.2968914,181.445722 44.5978808,180.80771 C44.8734344,180.152739 45.876026,179.97045 46.8023103,180.409216 C47.7328342,180.826786 48.2627451,181.702199 47.9405593,182.340212 Z M54.2367892,187.958254 C53.6263318,188.524199 52.4329723,188.261363 51.6232682,187.366874 C50.7860088,186.474504 50.6291553,185.281144 51.2480912,184.70672 C51.8776254,184.140775 53.0349512,184.405731 53.8743302,185.298101 C54.7115892,186.201069 54.8748019,187.38595 54.2367892,187.958254 Z M58.5562413,195.146347 C57.7719732,195.691096 56.4895886,195.180261 55.6968417,194.042013 C54.9125733,192.903764 54.9125733,191.538713 55.713799,190.991845 C56.5086651,190.444977 57.7719732,190.936735 58.5753181,192.066505 C59.3574669,193.22383 59.3574669,194.58888 58.5562413,195.146347 Z M65.8613592,203.471174 C65.1597571,204.244846 63.6654083,204.03712 62.5716717,202.981538 C61.4524999,201.94927 61.1409122,200.484596 61.8446341,199.710926 C62.5547146,198.935137 64.0575422,199.15346 65.1597571,200.200564 C66.2704506,201.230712 66.6095936,202.705984 65.8613592,203.471174 Z M75.3025151,206.281542 C74.9930474,207.284134 73.553809,207.739857 72.1039724,207.313809 C70.6562556,206.875043 69.7087748,205.700761 70.0012857,204.687571 C70.302275,203.678621 71.7478721,203.20382 73.2083069,203.659543 C74.6539041,204.09619 75.6035048,205.261994 75.3025151,206.281542 Z M86.046947,207.473627 C86.0829806,208.529209 84.8535871,209.404622 83.3316829,209.4237 C81.8013,209.457614 80.563428,208.603398 80.5464708,207.564772 C80.5464708,206.498591 81.7483088,205.631657 83.2786917,205.606221 C84.8005962,205.576546 86.046947,206.424403 86.046947,207.473627 Z M96.6021471,207.069023 C96.7844366,208.099171 95.7267341,209.156872 94.215428,209.438785 C92.7295577,209.710099 91.3539086,209.074206 91.1652603,208.052538 C90.9808515,206.996955 92.0576306,205.939253 93.5413813,205.66582 C95.054807,205.402984 96.4092596,206.021919 96.6021471,207.069023 Z"></path>
    </g>
  </symbol>
</svg>